<svg width="55" height="45" viewBox="0 0 55 45" fill="none" xmlns="http://www.w3.org/2000/svg">
<path d="M30.2097 11.2727C38.9235 11.2727 43.8646 17.169 44.585 24.2912H44.805C46.1366 24.2894 47.4555 24.5558 48.6864 25.0753C49.9172 25.5947 51.036 26.3571 51.9787 27.3187C52.9214 28.2804 53.6696 29.4225 54.1806 30.6799C54.6916 31.9373 54.9554 33.2854 54.9568 34.647C54.955 36.0084 54.691 37.3562 54.1798 38.6132C53.6687 39.8703 52.9204 41.0121 51.9777 41.9735C51.035 42.9349 49.9164 43.6969 48.6857 44.2162C47.455 44.7355 46.1364 45.0018 44.805 45H15.6145C14.2831 45.0018 12.9645 44.7355 11.7338 44.2162C10.5031 43.6969 9.38445 42.9349 8.44177 41.9735C7.49909 41.0121 6.75081 39.8703 6.23966 38.6132C5.72851 37.3562 5.46449 36.0084 5.46269 34.647C5.46413 33.2854 5.72788 31.9373 6.23887 30.6799C6.74986 29.4225 7.49808 28.2804 8.4408 27.3187C9.38352 26.3571 10.5023 25.5947 11.7331 25.0753C12.964 24.5558 14.2829 24.2894 15.6145 24.2912H15.8345C16.5576 17.1212 21.496 11.2727 30.207 11.2727H30.2097ZM30.2097 15.4848C24.5152 15.4848 19.5493 20.0764 19.5493 26.4198C19.5493 27.4236 18.6721 28.2137 17.6685 28.2137H15.7712C12.3039 28.2137 9.49096 31.0283 9.49096 34.5008C9.49096 37.9734 12.3039 40.7879 15.7712 40.7879H44.651C48.1156 40.7879 50.9285 37.9762 50.9285 34.5008C50.9285 31.0283 48.1184 28.2137 44.651 28.2137H42.751C41.7474 28.2137 40.8702 27.4264 40.8702 26.4198C40.8702 19.9948 35.9043 15.4819 30.2097 15.4819V15.4848Z" fill="white"/>
</svg>
