<svg width="55" height="45" viewBox="0 0 55 45" fill="none" xmlns="http://www.w3.org/2000/svg">
<path d="M27.5 0C37.1839 0 42.6761 5.90274 43.4736 13.028H43.7171C49.9479 13.028 55 17.667 55 23.3897C55 29.1124 49.9479 33.7514 43.7171 33.7514L40.9554 33.7476L40.9043 33.8751L35.0782 44.0155C34.844 44.4275 34.4568 44.7407 33.9927 44.8936C33.5286 45.0465 33.0214 45.028 32.5709 44.8417C32.1204 44.6554 31.7593 44.3148 31.5588 43.887C31.3583 43.4592 31.3328 42.9753 31.4875 42.5305L31.6289 42.2192L36.4964 33.7514H29.2168L29.1618 33.8789L23.3357 44.0193C23.1015 44.4312 22.7143 44.7445 22.2502 44.8974C21.7861 45.0503 21.2789 45.0318 20.8284 44.8455C20.3779 44.6591 20.0168 44.3185 19.8163 43.8908C19.6158 43.463 19.5903 42.979 19.745 42.5342L19.8864 42.223L24.7539 33.7514H17.4114L11.55 44.0155C11.3297 44.4001 10.9752 44.6987 10.5482 44.8597C10.1212 45.0207 9.6486 45.0339 9.2125 44.8968L8.88643 44.7618C8.48292 44.5521 8.16918 44.214 7.99979 43.8063C7.8304 43.3987 7.81606 42.9472 7.95929 42.5305L8.10071 42.2192L12.9368 33.7514H11.2829C5.05214 33.7514 0 29.1124 0 23.3897C0 17.877 4.68286 13.373 10.5954 13.0468L11.5264 13.028C12.3318 5.85399 17.8161 0 27.5 0ZM27.5 3.75015C21.0179 3.75015 15.3725 8.51284 15.3725 15.0944C15.3725 16.1369 14.3746 16.9544 13.2314 16.9544H11.0707C7.12643 16.9544 3.92857 19.8758 3.92857 23.4797C3.92857 27.0761 7.12643 30.0012 11.0707 30.0012H43.9293C47.8736 30.0012 51.0714 27.0799 51.0714 23.476C51.0714 19.8758 47.8736 16.9544 43.9293 16.9544H41.7686C40.6293 16.9544 39.6275 16.1369 39.6275 15.0944C39.6275 8.43034 33.9821 3.75015 27.5 3.75015Z" fill="white"/>
</svg>
