<svg width="50" height="50" viewBox="0 0 50 50" fill="none" xmlns="http://www.w3.org/2000/svg">
<path d="M22.2746 37.2269L27.7966 30.5608C28.0565 30.2477 28.4174 30.0503 28.8075 30.0077C29.1976 29.9652 29.5884 30.0807 29.9024 30.3312C30.2163 30.5817 30.4305 30.949 30.5024 31.3601C30.5743 31.7713 30.4986 32.1962 30.2904 32.5506L30.1216 32.7906L26.9434 36.6736H32.8123C33.0849 36.6733 33.3528 36.749 33.5895 36.8933C33.8262 37.0376 34.0233 37.2454 34.1614 37.4961C34.2994 37.7468 34.3736 38.0316 34.3765 38.3224C34.3794 38.6131 34.3109 38.8996 34.1779 39.1534L34.0342 39.3767L26.3934 49.3858C26.149 49.7059 25.8019 49.9179 25.4194 49.9806C25.0368 50.0434 24.646 49.9525 24.3228 49.7255C23.9995 49.4985 23.7667 49.1517 23.6694 48.7521C23.5722 48.3525 23.6175 47.9287 23.7965 47.5627L23.9528 47.3094L29.5685 40.0066H23.4371C23.157 40.0072 22.882 39.9274 22.6407 39.7757C22.3994 39.6239 22.2008 39.4058 22.0657 39.1441C21.9306 38.8824 21.8639 38.5868 21.8726 38.2883C21.8813 37.9897 21.9651 37.6991 22.1152 37.4469L22.2746 37.2269L27.7966 30.5608L22.2746 37.2269V37.2269ZM28.1247 9.99916C35.8279 9.99916 40.1967 15.2454 40.8311 21.5782H41.0249C45.9812 21.5782 50 25.7012 50 30.7874C50 35.8737 45.9812 39.9966 41.0249 39.9966H37.0998C37.3589 39.4857 37.4971 38.9151 37.5026 38.3342C37.508 37.7534 37.3805 37.1799 37.1311 36.6636H41.1936C44.3312 36.6636 46.875 34.0671 46.875 30.8641C46.875 27.6643 44.3312 25.0679 41.1936 25.0679H39.4749C38.5686 25.0679 37.7717 24.3413 37.7717 23.4147C37.7717 17.4919 33.281 13.3322 28.1247 13.3322C22.9684 13.3322 18.4777 17.5652 18.4777 23.4147C18.4777 24.3413 17.6839 25.0679 16.7745 25.0679H15.0558C11.9182 25.0679 9.37444 27.6643 9.37444 30.8674C9.37444 34.0638 11.9182 36.6636 15.0558 36.6636H19.1183C18.8689 37.1799 18.7414 37.7534 18.7468 38.3342C18.7522 38.9151 18.8905 39.4857 19.1496 39.9966H15.2245C10.2682 39.9966 6.2494 35.8737 6.2494 30.7874C6.2494 25.7012 10.2682 21.5782 15.2245 21.5782H15.4183C16.0589 15.2021 20.4215 9.99916 28.1247 9.99916ZM19.9746 1.16175e-07C24.5246 1.16175e-07 28.4935 2.75977 30.4529 6.81609C29.1216 6.64002 27.7765 6.61544 26.4403 6.74277C25.6684 5.68309 24.68 4.82518 23.5504 4.23432C22.4207 3.64346 21.1796 3.33522 19.9215 3.33305C15.8714 3.33305 12.4214 6.48612 11.7338 10.7491L11.6182 11.449C11.4929 12.2236 11.115 12.9261 10.5512 13.4323C9.98734 13.9385 9.27392 14.2159 8.53693 14.2155H7.73067C5.18688 14.2155 3.12435 16.442 3.12435 19.1884C3.12435 21.0882 4.10874 22.7381 5.55564 23.5747C4.88688 24.4813 4.33687 25.4945 3.93061 26.5811C2.44187 25.6137 1.28122 24.1651 0.617366 22.4459C-0.0464861 20.7266 -0.178931 18.8264 0.239285 17.0213C0.6575 15.2163 1.60458 13.6006 2.94284 12.4091C4.28111 11.2175 5.9408 10.5122 7.68067 10.3958L8.3713 10.3791C8.85319 7.47047 10.2804 4.83583 12.4023 2.93778C14.5242 1.03973 17.2052 -0.000401353 19.9746 1.16175e-07V1.16175e-07Z" fill="white"/>
</svg>
