<svg width="50" height="50" viewBox="0 0 50 50" fill="none" xmlns="http://www.w3.org/2000/svg">
<path d="M26.7857 1.78571C26.7857 1.31211 26.5976 0.85791 26.2627 0.523024C25.9278 0.188137 25.4736 0 25 0C24.5264 0 24.0722 0.188137 23.7373 0.523024C23.4024 0.85791 23.2143 1.31211 23.2143 1.78571V5.35714C23.2143 5.83074 23.4024 6.28495 23.7373 6.61983C24.0722 6.95472 24.5264 7.14286 25 7.14286C25.4736 7.14286 25.9278 6.95472 26.2627 6.61983C26.5976 6.28495 26.7857 5.83074 26.7857 5.35714V1.78571ZM9.84643 7.32143C9.50964 6.99615 9.05856 6.81616 8.59036 6.82022C8.12215 6.82429 7.67427 7.01209 7.34318 7.34318C7.01209 7.67427 6.82429 8.12215 6.82022 8.59036C6.81616 9.05856 6.99615 9.50964 7.32143 9.84643L9.84643 12.3714C10.1832 12.6967 10.6343 12.8767 11.1025 12.8726C11.5707 12.8686 12.0186 12.6808 12.3497 12.3497C12.6808 12.0186 12.8686 11.5707 12.8726 11.1025C12.8767 10.6343 12.6967 10.1832 12.3714 9.84643L9.84643 7.32143V7.32143ZM42.6786 9.84643C42.8491 9.6817 42.9852 9.48466 43.0788 9.26679C43.1723 9.04893 43.2216 8.81461 43.2237 8.5775C43.2257 8.3404 43.1805 8.10525 43.0908 7.8858C43.001 7.66634 42.8684 7.46696 42.7007 7.29929C42.533 7.13163 42.3337 6.99903 42.1142 6.90925C41.8947 6.81946 41.6596 6.77428 41.4225 6.77634C41.1854 6.7784 40.9511 6.82766 40.7332 6.92125C40.5153 7.01483 40.3183 7.15087 40.1536 7.32143L37.6286 9.84643C37.3033 10.1832 37.1233 10.6343 37.1274 11.1025C37.1314 11.5707 37.3192 12.0186 37.6503 12.3497C37.9814 12.6808 38.4293 12.8686 38.8975 12.8726C39.3657 12.8767 39.8168 12.6967 40.1536 12.3714L42.6786 9.84643ZM1.78571 23.2143C1.31211 23.2143 0.85791 23.4024 0.523024 23.7373C0.188137 24.0722 0 24.5264 0 25C0 25.4736 0.188137 25.9278 0.523024 26.2627C0.85791 26.5976 1.31211 26.7857 1.78571 26.7857H5.35714C5.83074 26.7857 6.28495 26.5976 6.61983 26.2627C6.95472 25.9278 7.14286 25.4736 7.14286 25C7.14286 24.5264 6.95472 24.0722 6.61983 23.7373C6.28495 23.4024 5.83074 23.2143 5.35714 23.2143H1.78571ZM44.6429 23.2143C44.1693 23.2143 43.7151 23.4024 43.3802 23.7373C43.0453 24.0722 42.8571 24.5264 42.8571 25C42.8571 25.4736 43.0453 25.9278 43.3802 26.2627C43.7151 26.5976 44.1693 26.7857 44.6429 26.7857H48.2143C48.6879 26.7857 49.1421 26.5976 49.477 26.2627C49.8119 25.9278 50 25.4736 50 25C50 24.5264 49.8119 24.0722 49.477 23.7373C49.1421 23.4024 48.6879 23.2143 48.2143 23.2143H44.6429ZM12.3714 40.1536C12.542 39.9888 12.678 39.7918 12.7716 39.5739C12.8652 39.3561 12.9145 39.1218 12.9165 38.8846C12.9186 38.6475 12.8734 38.4124 12.7836 38.1929C12.6938 37.9735 12.5612 37.7741 12.3936 37.6064C12.2259 37.4388 12.0265 37.3062 11.8071 37.2164C11.5876 37.1266 11.3525 37.0814 11.1154 37.0835C10.8782 37.0855 10.6439 37.1348 10.4261 37.2284C10.2082 37.322 10.0112 37.458 9.84643 37.6286L7.32143 40.1536C7.15087 40.3183 7.01483 40.5153 6.92125 40.7332C6.82766 40.9511 6.7784 41.1854 6.77634 41.4225C6.77428 41.6596 6.81946 41.8947 6.90925 42.1142C6.99903 42.3337 7.13163 42.533 7.29929 42.7007C7.46696 42.8684 7.66634 43.001 7.8858 43.0908C8.10525 43.1805 8.3404 43.2257 8.5775 43.2237C8.81461 43.2216 9.04893 43.1723 9.26679 43.0788C9.48466 42.9852 9.6817 42.8491 9.84643 42.6786L12.3714 40.1536ZM40.1536 37.6286C39.8168 37.3033 39.3657 37.1233 38.8975 37.1274C38.4293 37.1314 37.9814 37.3192 37.6503 37.6503C37.3192 37.9814 37.1314 38.4293 37.1274 38.8975C37.1233 39.3657 37.3033 39.8168 37.6286 40.1536L40.1536 42.6786C40.3183 42.8491 40.5153 42.9852 40.7332 43.0788C40.9511 43.1723 41.1854 43.2216 41.4225 43.2237C41.6596 43.2257 41.8947 43.1805 42.1142 43.0908C42.3337 43.001 42.533 42.8684 42.7007 42.7007C42.8684 42.533 43.001 42.3337 43.0908 42.1142C43.1805 41.8947 43.2257 41.6596 43.2237 41.4225C43.2216 41.1854 43.1723 40.9511 43.0788 40.7332C42.9852 40.5153 42.8491 40.3183 42.6786 40.1536L40.1536 37.6286ZM26.7857 44.6429C26.7857 44.1693 26.5976 43.7151 26.2627 43.3802C25.9278 43.0453 25.4736 42.8571 25 42.8571C24.5264 42.8571 24.0722 43.0453 23.7373 43.3802C23.4024 43.7151 23.2143 44.1693 23.2143 44.6429V48.2143C23.2143 48.6879 23.4024 49.1421 23.7373 49.477C24.0722 49.8119 24.5264 50 25 50C25.4736 50 25.9278 49.8119 26.2627 49.477C26.5976 49.1421 26.7857 48.6879 26.7857 48.2143V44.6429ZM25 10.7143C21.2112 10.7143 17.5776 12.2194 14.8985 14.8985C12.2194 17.5776 10.7143 21.2112 10.7143 25C10.7143 28.7888 12.2194 32.4224 14.8985 35.1015C17.5776 37.7806 21.2112 39.2857 25 39.2857C28.7888 39.2857 32.4224 37.7806 35.1015 35.1015C37.7806 32.4224 39.2857 28.7888 39.2857 25C39.2857 21.2112 37.7806 17.5776 35.1015 14.8985C32.4224 12.2194 28.7888 10.7143 25 10.7143ZM14.2857 25C14.2857 22.1584 15.4145 19.4332 17.4239 17.4239C19.4332 15.4145 22.1584 14.2857 25 14.2857C27.8416 14.2857 30.5668 15.4145 32.5761 17.4239C34.5855 19.4332 35.7143 22.1584 35.7143 25C35.7143 27.8416 34.5855 30.5668 32.5761 32.5761C30.5668 34.5855 27.8416 35.7143 25 35.7143C22.1584 35.7143 19.4332 34.5855 17.4239 32.5761C15.4145 30.5668 14.2857 27.8416 14.2857 25Z" fill="white"/>
</svg>
