<svg width="55" height="45" viewBox="0 0 55 45" fill="none" xmlns="http://www.w3.org/2000/svg">
<path d="M30.2529 11.2727C38.9667 11.2727 43.9078 17.169 44.6282 24.2912H44.8482C46.1798 24.2894 47.4987 24.5558 48.7295 25.0753C49.9604 25.5947 51.0792 26.3571 52.0219 27.3187C52.9646 28.2804 53.7128 29.4225 54.2238 30.6799C54.7348 31.9373 54.9986 33.2854 55 34.647C54.9982 36.0084 54.7342 37.3562 54.223 38.6132C53.7119 39.8703 52.9636 41.0121 52.0209 41.9735C51.0782 42.9349 49.9596 43.6969 48.7289 44.2162C47.4982 44.7355 46.1796 45.0018 44.8482 45H15.6577C14.3263 45.0018 13.0077 44.7355 11.777 44.2162C10.5463 43.6969 9.42764 42.9349 8.48496 41.9735C7.54228 41.0121 6.794 39.8703 6.28285 38.6132C5.7717 37.3562 5.50768 36.0084 5.50588 34.647C5.50732 33.2854 5.77107 31.9373 6.28206 30.6799C6.79305 29.4225 7.54127 28.2804 8.48399 27.3187C9.42671 26.3571 10.5455 25.5947 11.7763 25.0753C13.0072 24.5558 14.3261 24.2894 15.6577 24.2912H15.8776C16.6008 17.1212 21.5392 11.2727 30.2502 11.2727H30.2529ZM30.2529 15.4848C24.5584 15.4848 19.5925 20.0764 19.5925 26.4198C19.5925 27.4236 18.7153 28.2137 17.7117 28.2137H15.8144C12.3471 28.2137 9.53415 31.0283 9.53415 34.5008C9.53415 37.9734 12.3471 40.7879 15.8144 40.7879H44.6942C48.1588 40.7879 50.9717 37.9762 50.9717 34.5008C50.9717 31.0283 48.1616 28.2137 44.6942 28.2137H42.7942C41.7906 28.2137 40.9134 27.4264 40.9134 26.4198C40.9134 19.9948 35.9475 15.4819 30.2529 15.4819V15.4848ZM6.51226 22.9556C6.70323 23.4269 6.72071 23.9529 6.56145 24.4363C6.4022 24.9197 6.077 25.3277 5.64611 25.5847L5.39589 25.7112L2.84969 26.7909C2.36709 26.9948 1.82683 27.0039 1.33794 26.8163C0.849044 26.6288 0.447921 26.2586 0.215521 25.7804C-0.0168796 25.3023 -0.0632522 24.7518 0.0857616 24.24C0.234775 23.7283 0.56808 23.2934 1.01841 23.0231L1.27138 22.8938L3.81758 21.8169C4.3226 21.6026 4.89016 21.6022 5.39547 21.8158C5.90078 22.0293 6.30248 22.4393 6.51226 22.9556V22.9556ZM24.3494 9.36632L23.8764 9.52941C22.4464 10.042 21.0947 10.7596 19.8619 11.6607C18.538 11.221 17.1132 11.2128 15.7846 11.6374C14.456 12.062 13.2892 12.8984 12.4458 14.0308C11.6024 15.1631 11.1239 16.5356 11.0767 17.9582C11.0294 19.3808 11.4157 20.7832 12.1821 21.9715C10.8419 22.3564 9.57293 22.9644 8.42603 23.7711C7.16577 21.556 6.69502 18.9629 7.0939 16.4329C7.49278 13.9029 8.73663 11.5924 10.6138 9.89458C12.4909 8.19678 14.8854 7.21658 17.3897 7.12078C19.894 7.02498 22.3534 7.8195 24.3494 9.36913V9.36632ZM2.58572 9.45349L2.87719 9.5519L5.42339 10.6316C5.90217 10.8369 6.28765 11.2192 6.50285 11.7023C6.71806 12.1854 6.74715 12.7338 6.58434 13.2379C6.42152 13.742 6.07877 14.1647 5.62452 14.4217C5.17026 14.6787 4.63793 14.7511 4.13379 14.6243L3.85057 14.5316L1.30438 13.4518C0.826859 13.246 0.442628 12.8639 0.228136 12.3815C0.0136435 11.8991 -0.015387 11.3518 0.146821 10.8485C0.309029 10.3452 0.650585 9.92283 1.10353 9.66538C1.55647 9.40792 2.08759 9.33429 2.59122 9.45911L2.58572 9.45349ZM13.0757 1.05752L13.2022 1.31339L14.2553 3.91991C14.4519 4.41297 14.4587 4.9638 14.2745 5.46182C14.0904 5.95984 13.7288 6.36819 13.2624 6.60488C12.796 6.84157 12.2593 6.88909 11.76 6.73789C11.2608 6.5867 10.8359 6.24798 10.5708 5.78974L10.4443 5.53387L9.39117 2.92735C9.19464 2.43429 9.18778 1.88346 9.37196 1.38544C9.55614 0.887416 9.91773 0.479073 10.3841 0.242381C10.8505 0.00568979 11.3872 -0.0418283 11.8865 0.109367C12.3857 0.260563 12.8106 0.599279 13.0757 1.05752V1.05752ZM25.0478 0.16056C25.5043 0.354322 25.8776 0.709315 26.0997 1.16089C26.3217 1.61246 26.3778 2.13057 26.2577 2.62087L26.1614 2.9161L25.1083 5.52262C24.9076 6.01222 24.5337 6.4064 24.0613 6.62647C23.5888 6.84653 23.0526 6.87629 22.5596 6.7098C22.0667 6.5433 21.6533 6.19281 21.4019 5.7283C21.1506 5.26378 21.0798 4.71942 21.2038 4.2039L21.2973 3.90585L22.3531 1.30214C22.4567 1.04623 22.6086 0.813705 22.8001 0.617833C22.9916 0.421961 23.219 0.266584 23.4692 0.160575C23.7195 0.054566 23.9877 2.53148e-06 24.2585 0C24.5294 -2.53131e-06 24.7976 0.0545559 25.0478 0.16056V0.16056Z" fill="white"/>
</svg>
