<svg width="50" height="50" viewBox="0 0 50 50" fill="none" xmlns="http://www.w3.org/2000/svg">
<path d="M28.0882 12.4704C35.8043 12.4704 40.1804 17.3873 40.8158 23.3294H41.0099C45.9745 23.3294 50 27.1959 50 31.9659C50 36.7358 45.9745 40.6023 41.0099 40.6023H38.8375L38.7843 40.7305L34.1359 49.1826C33.9493 49.5259 33.6407 49.787 33.2709 49.9145C32.9012 50.0419 32.497 50.0265 32.138 49.8712C31.7791 49.7159 31.4914 49.432 31.3316 49.0755C31.1719 48.7189 31.1516 48.3155 31.2748 47.9448L31.3875 47.6885L35.2878 40.6023H29.4843L29.428 40.7305L24.7795 49.1826C24.593 49.5259 24.2844 49.787 23.9146 49.9145C23.5448 50.0419 23.1407 50.0265 22.7817 49.8712C22.4228 49.7159 22.1351 49.432 21.9753 49.0755C21.8155 48.7189 21.7953 48.3155 21.9185 47.9448L22.0312 47.6885L25.9346 40.6023H20.0748L15.3919 49.1826C15.2053 49.5259 14.8968 49.787 14.527 49.9145C14.1572 50.0419 13.753 50.0265 13.3941 49.8712C13.0351 49.7159 12.7474 49.432 12.5877 49.0755C12.4279 48.7189 12.4076 48.3155 12.5309 47.9448L12.6436 47.6885L16.5125 40.6023H15.1665C10.202 40.6023 6.17645 36.7358 6.17645 31.9659C6.17645 27.1959 10.202 23.3294 15.1665 23.3294H15.3606C16.0023 17.3466 20.3721 12.4704 28.0882 12.4704ZM28.0882 15.5962C22.9233 15.5962 18.4251 19.5659 18.4251 25.0517C18.4251 25.9206 17.63 26.602 16.7191 26.602H14.9975C11.8547 26.5989 9.3067 29.037 9.3067 32.0377C9.3067 35.0385 11.8547 37.4766 14.9975 37.4766H41.1789C44.3217 37.4766 46.8697 35.0385 46.8697 32.0377C46.8697 29.037 44.3217 26.5989 41.1789 26.5989H39.4573C38.5495 26.602 37.7513 25.9206 37.7513 25.0517C37.7513 19.4972 33.2531 15.5962 28.0882 15.5962ZM5.55979 20.91C5.68039 21.2562 5.6753 21.6337 5.54541 21.9765C5.41552 22.3194 5.1691 22.6057 4.84922 22.7855L4.58941 22.898L2.08208 23.7607C1.71206 23.89 1.30692 23.8759 0.946791 23.7213C0.586662 23.5666 0.297765 23.2827 0.137238 22.9255C-0.0232895 22.5684 -0.043758 22.1641 0.0798803 21.7926C0.203519 21.4211 0.46226 21.1095 0.804933 20.9194L1.06161 20.8069L3.57208 19.9441C3.96435 19.8097 4.39402 19.8363 4.76671 20.018C5.1394 20.1996 5.42464 20.5216 5.55979 20.9131V20.91ZM21.5773 7.78179C22.6197 8.28816 23.5368 8.9477 24.3131 9.71976C23.0423 9.9792 21.8528 10.3762 20.7572 10.8919C19.3434 10.0422 17.6785 9.7079 16.0457 9.94593C14.4129 10.184 12.9131 10.9796 11.8017 12.1975C10.6902 13.4153 10.0356 14.9801 9.94943 16.6256C9.86323 18.2711 10.3507 19.8956 11.3288 21.2226C10.2959 21.5289 9.32548 21.9759 8.43336 22.5354C7.22231 20.6527 6.66134 18.426 6.83605 16.1952C7.01076 13.9644 7.91156 11.8519 9.40099 10.18C10.8904 8.50819 12.8867 7.36884 15.0852 6.93582C17.2837 6.50281 19.5637 6.79991 21.5773 7.78179V7.78179ZM2.78638 8.31317L3.04619 8.41319L5.43145 9.57285C5.78308 9.74354 6.058 10.0395 6.20211 10.4024C6.34622 10.7653 6.34907 11.169 6.21011 11.5339C6.07116 11.8988 5.80045 12.1986 5.45126 12.3743C5.10208 12.5499 4.69971 12.5887 4.32334 12.4829L4.0604 12.3829L1.67514 11.2233C1.32351 11.0526 1.04859 10.7566 0.90448 10.3937C0.760373 10.0308 0.757518 9.62712 0.896477 9.26219C1.03544 8.89726 1.30614 8.59748 1.65533 8.42185C2.00451 8.24621 2.40688 8.20744 2.78325 8.31317H2.78638ZM24.9267 0.889471C25.2562 1.05004 25.5189 1.32107 25.6688 1.65526C25.8187 1.98946 25.8463 2.3656 25.7468 2.71804L25.6466 2.98061L24.4853 5.36244C24.3144 5.71357 24.018 5.9881 23.6546 6.132C23.2911 6.2759 22.8869 6.27875 22.5214 6.13999C22.156 6.00124 21.8558 5.73091 21.6799 5.38223C21.504 5.03355 21.4652 4.63175 21.571 4.25592L21.6712 3.99023L22.8357 1.6084C23.0177 1.23643 23.3402 0.951817 23.7322 0.817028C24.1243 0.682239 24.5539 0.708293 24.9267 0.889471V0.889471ZM13.063 0.789446L13.1788 1.04576L14.0428 3.55262C14.1698 3.92164 14.1539 4.32474 13.9984 4.6827C13.8429 5.04065 13.5589 5.32755 13.2022 5.48701C12.8456 5.64646 12.4421 5.66693 12.0711 5.5444C11.7001 5.42186 11.3885 5.16518 11.1974 4.82481L11.0847 4.5685L10.2207 2.06476C10.0957 1.69662 10.1126 1.29516 10.2681 0.938773C10.4235 0.582381 10.7064 0.296632 11.0615 0.137305C11.4166 -0.0220221 11.8184 -0.0434896 12.1885 0.077093C12.5586 0.197676 12.8704 0.451653 13.063 0.789446V0.789446Z" fill="white"/>
</svg>
